<?xml version="1.0" encoding="UTF-8" standalone="no"?>
<svg
   xmlns:dc="http://purl.org/dc/elements/1.1/"
   xmlns:cc="http://creativecommons.org/ns#"
   xmlns:rdf="http://www.w3.org/1999/02/22-rdf-syntax-ns#"
   xmlns:svg="http://www.w3.org/2000/svg"
   xmlns="http://www.w3.org/2000/svg"
   xmlns:xlink="http://www.w3.org/1999/xlink"
   version="1.1"
   id="svg2"
   height="300"
   width="300">
  <defs
     id="defs4">
    <linearGradient
       id="linearGradient6523">
      <stop
         id="stop6525"
         offset="0"
         style="stop-color:#000000;stop-opacity:1;" />
      <stop
         id="stop6527"
         offset="1"
         style="stop-color:#000000;stop-opacity:0;" />
    </linearGradient>
    <linearGradient
       id="linearGradient5995">
      <stop
         style="stop-color:#90c160;stop-opacity:1"
         offset="0"
         id="stop5997" />
      <stop
         id="stop6001"
         offset="0.23814805"
         style="stop-color:#f7ca00;stop-opacity:0.54901963" />
      <stop
         style="stop-color:#f7ca00;stop-opacity:0.66666669"
         offset="0.75174826"
         id="stop6005" />
      <stop
         style="stop-color:#90c160;stop-opacity:1"
         offset="1"
         id="stop5999" />
    </linearGradient>
    <linearGradient
       id="linearGradient5961">
      <stop
         id="stop5963"
         offset="0"
         style="stop-color:#ffffff;stop-opacity:1;" />
      <stop
         id="stop5965"
         offset="1"
         style="stop-color:#ffffff;stop-opacity:0;" />
    </linearGradient>
    <clipPath
       id="clipPath8845"
       clipPathUnits="userSpaceOnUse">
      <path
         id="path8847"
         d="M 803.40826,291.07647 1065.5511,205.36218 981.2654,103.93361 801.97969,74.647898 Z"
         style="fill:none;stroke:#000000;stroke-width:1px;stroke-linecap:butt;stroke-linejoin:miter;stroke-opacity:1" />
    </clipPath>
    <clipPath
       id="clipPath8933"
       clipPathUnits="userSpaceOnUse">
      <path
         id="path8935"
         d="M 92.142857,22.005038 100.71429,455.21932 346.78571,423.43361 362.5,186.6479 180.35714,13.43361 Z"
         style="fill:none;stroke:#000000;stroke-width:1px;stroke-linecap:butt;stroke-linejoin:miter;stroke-opacity:1" />
    </clipPath>
    <clipPath
       id="clipPath9070"
       clipPathUnits="userSpaceOnUse">
      <path
         id="path9072"
         d="m -107.13536,299.14746 c 4.04061,-2.02031 203.515102,-63.2365 203.515102,-63.2365 L 92.748577,18.956399 223.6896,-4.403379 363.09065,153.68549 306.52211,425.41653 49.943362,481.98507 c 0,0 -137.885822,-60.60915 -140.411204,-61.6193 -2.525381,-1.01016 -16.667518,-121.21831 -16.667518,-121.21831 z"
         style="fill:none;stroke:#000000;stroke-width:0.1;stroke-linecap:butt;stroke-linejoin:miter;stroke-miterlimit:4;stroke-dasharray:none;stroke-opacity:1" />
    </clipPath>
    <clipPath
       id="clipPath9076"
       clipPathUnits="userSpaceOnUse">
      <path
         id="path9078"
         d="M 94.698876,7.3061618 103.15301,490.04601 c 0,0 -191.724439,-46.96954 -192.438724,-53.39811 C -90,430.21932 -136.42857,105.21932 -136.42857,105.21932 Z"
         style="fill:none;stroke:#000000;stroke-width:1px;stroke-linecap:butt;stroke-linejoin:miter;stroke-opacity:1" />
    </clipPath>
    <linearGradient
       gradientUnits="userSpaceOnUse"
       y2="148.97025"
       x2="-40.279121"
       y1="148.97025"
       x1="-198.51552"
       id="linearGradient5967"
       xlink:href="#linearGradient5961" />
    <linearGradient
       gradientUnits="userSpaceOnUse"
       y2="228.07646"
       x2="-7.2969513"
       y1="222.01555"
       x1="-409.43979"
       id="linearGradient5975"
       xlink:href="#linearGradient5995" />
    <linearGradient
       gradientUnits="userSpaceOnUse"
       y2="1180.6589"
       x2="543.92603"
       y1="1180.6589"
       x1="301.8389"
       id="linearGradient6529"
       xlink:href="#linearGradient6523" />
    <linearGradient
       y2="228.07646"
       x2="-7.2969513"
       y1="222.01555"
       x1="-409.43979"
       gradientUnits="userSpaceOnUse"
       id="linearGradient8588"
       xlink:href="#linearGradient5995" />
    <linearGradient
       y2="148.97025"
       x2="-40.279121"
       y1="148.97025"
       x1="-198.51552"
       gradientUnits="userSpaceOnUse"
       id="linearGradient8590"
       xlink:href="#linearGradient5961" />
    <linearGradient
       y2="228.07646"
       x2="-7.2969513"
       y1="222.01555"
       x1="-409.43979"
       gradientUnits="userSpaceOnUse"
       id="linearGradient8999"
       xlink:href="#linearGradient5995" />
    <linearGradient
       y2="148.97025"
       x2="-40.279121"
       y1="148.97025"
       x1="-198.51552"
       gradientUnits="userSpaceOnUse"
       id="linearGradient9001"
       xlink:href="#linearGradient5961" />
  </defs>
  <metadata
     id="metadata7">
    <rdf:RDF>
      <cc:Work
         rdf:about="">
        <dc:format>image/svg+xml</dc:format>
        <dc:type
           rdf:resource="http://purl.org/dc/dcmitype/StillImage" />
        <dc:title></dc:title>
      </cc:Work>
    </rdf:RDF>
  </metadata>
  <g
     transform="translate(0,-752.36218)"
     id="layer1">
    <g
       transform="matrix(0.63124722,0,0,0.63124722,277.76997,764.78838)"
       id="g6007">
      <circle
         r="198.57143"
         cy="222.01555"
         cx="-208.36838"
         style="fill:#ffffff;fill-opacity:1;stroke:url(#linearGradient5975);stroke-width:5;stroke-linecap:round;stroke-linejoin:round;stroke-miterlimit:4;stroke-dasharray:none;stroke-dashoffset:0;stroke-opacity:1"
         id="path2985-4" />
      <path
         style="fill:#f7ca00;fill-opacity:1;stroke:#ffffff;stroke-width:1px;stroke-linecap:butt;stroke-linejoin:miter;stroke-opacity:1"
         d="m -213.6727,210.64046 c 0,0 -76.84651,-92.52566 -98.78302,-130.05713 -14.51537,-24.83455 89.74013,-62.80201 97.47973,-34.59773 7.74948,28.24028 1.30329,164.65486 1.30329,164.65486 z"
         id="path4479-99" />
      <path
         style="fill:#ffffff;fill-opacity:1;stroke:#f7ffff;stroke-width:1px;stroke-linecap:butt;stroke-linejoin:miter;stroke-opacity:1"
         d="m -220.65943,170.52734 c -4.55771,-3.21729 -7.7344,-81.41639 -4.62761,-83.98125 4.72064,1.72999 7.79014,78.47502 4.62761,83.98125 z"
         id="path4479-6-3" />
      <path
         style="fill:#ffffff;fill-opacity:1;stroke:#f7ffff;stroke-width:0.71956319px;stroke-linecap:butt;stroke-linejoin:miter;stroke-opacity:1"
         d="m -229.60132,182.44889 c -3.79759,0.24637 -26.52563,-40.91031 -24.59137,-49.66332 6.90603,0.78726 24.84107,44.49405 24.59137,49.66332 z"
         id="path4479-6-8-6" />
      <path
         style="fill:#ffffff;fill-opacity:1;stroke:#f7ffff;stroke-width:0.89197654px;stroke-linecap:butt;stroke-linejoin:miter;stroke-opacity:1"
         d="m -244.48417,119.20973 c -7.59827,-1.2084 -19.40317,-57.3398 -17.63115,-59.39613 5.50122,1.16343 17.6779,49.59564 17.63115,59.39613 z"
         id="path4479-6-8-9-05" />
      <path
         style="fill:#f7ff00;fill-opacity:1;stroke:#ffffff;stroke-width:0.95657951px;stroke-linecap:butt;stroke-linejoin:miter;stroke-opacity:1"
         d="m -203.71497,209.77622 c 0,0 -4.96508,-120.15383 -0.24144,-163.31831 3.12565,-28.56193 100.15724,4.0906 90.22707,31.24966 -9.94282,27.19374 -89.98563,132.06865 -89.98563,132.06865 z"
         id="path4479-2-2" />
      <path
         style="fill:#ffffff;fill-opacity:1;stroke:#f7ffff;stroke-width:0.8062309px;stroke-linecap:butt;stroke-linejoin:miter;stroke-opacity:1"
         d="m -192.13303,141.54299 c -6.64675,-3.28441 2.59646,-49.38679 4.98995,-50.38775 4.70823,2.596 -1.41127,42.99613 -4.98995,50.38775 z"
         id="path4479-6-8-9-6-94" />
      <path
         style="fill:#ffffff;fill-opacity:1;stroke:#f7ffff;stroke-width:0.89197654px;stroke-linecap:butt;stroke-linejoin:miter;stroke-opacity:1"
         d="m -197.46338,192.66605 c -4.77127,-6.03564 24.5647,-55.32551 27.26116,-55.638 3.25899,4.58213 -20.58844,48.45979 -27.26116,55.638 z"
         id="path4479-6-8-9-6-4-3" />
      <path
         style="fill:#ffffff;fill-opacity:1;stroke:#f7ffff;stroke-width:0.65351754px;stroke-linecap:butt;stroke-linejoin:miter;stroke-opacity:1"
         d="m -164.22534,116.25291 c -3.43575,-4.56923 16.85781,-41.98771 18.7637,-42.22877 2.35119,3.46942 -14.10897,36.77576 -18.7637,42.22877 z"
         id="path4479-6-8-9-6-9-5" />
      <path
         style="fill:#90c45d;fill-opacity:0.97254902;stroke:#ffffff;stroke-width:0.95657951px;stroke-linecap:butt;stroke-linejoin:miter;stroke-opacity:1"
         d="m -197.41606,231.06405 c 0,0 116.750719,28.8247 156.873384,45.42762 26.549156,10.98617 -31.928774,95.01978 -55.228638,77.89264 C -119.10094,337.23532 -197.41606,231.06405 -197.41606,231.06405 Z"
         id="path4479-2-0-7" />
      <path
         style="fill:#ffffff;fill-opacity:1;stroke:#f7ffff;stroke-width:0.8062309px;stroke-linecap:butt;stroke-linejoin:miter;stroke-opacity:1"
         d="m -135.14168,261.26034 c 5.0117,-5.46348 46.691561,16.30015 46.983451,18.87804 -3.808778,3.79471 -40.887081,-13.37557 -46.983451,-18.87804 z"
         id="path4479-6-8-9-6-48-4" />
      <path
         style="fill:#ffffff;fill-opacity:1;stroke:#f7ffff;stroke-width:0.89197654px;stroke-linecap:butt;stroke-linejoin:miter;stroke-opacity:1"
         d="m -182.73595,241.8499 c 7.12889,-2.89361 46.25174,39.0527 45.79791,41.729 -5.31054,1.84799 -40.77145,-33.31553 -45.79791,-41.729 z"
         id="path4479-6-8-9-6-4-7-3" />
      <path
         style="fill:#ffffff;fill-opacity:1;stroke:#f7ffff;stroke-width:0.65351754px;stroke-linecap:butt;stroke-linejoin:miter;stroke-opacity:1"
         d="m -118.6623,295.12562 c 5.34757,-2.02131 35.600428,27.92424 35.29904,29.82152 -3.988405,1.28748 -31.36481,-23.82788 -35.29904,-29.82152 z"
         id="path4479-6-8-9-6-9-1-14" />
      <path
         style="fill:#90c45d;fill-opacity:0.97254902;stroke:#ffffff;stroke-width:0.95657951px;stroke-linecap:butt;stroke-linejoin:miter;stroke-opacity:1"
         d="m -201.92524,237.6349 c 0,0 74.57629,94.33966 96.10016,132.05184 14.242333,24.95415 -83.47169,55.50389 -91.38248,27.68947 -7.92092,-27.84993 -4.71768,-159.74131 -4.71768,-159.74131 z"
         id="path4479-2-0-2-9" />
      <path
         style="fill:#ffffff;fill-opacity:1;stroke:#f7ffff;stroke-width:0.8062309px;stroke-linecap:butt;stroke-linejoin:miter;stroke-opacity:1"
         d="m -171.23161,299.66567 c 7.30872,-1.24467 26.89956,41.49952 25.55001,43.71524 -5.33539,0.66353 -24.10613,-35.6308 -25.55001,-43.71524 z"
         id="path4479-6-8-9-6-48-7-4" />
      <path
         style="fill:#ffffff;fill-opacity:1;stroke:#f7ffff;stroke-width:0.89197654px;stroke-linecap:butt;stroke-linejoin:miter;stroke-opacity:1"
         d="m -196.93788,255.15536 c 7.40626,2.08357 12.60533,59.20678 10.60625,61.04314 -5.32864,-1.79512 -11.79208,-51.31454 -10.60625,-61.04314 z"
         id="path4479-6-8-9-6-4-7-2-2" />
      <path
         style="fill:#ffffff;fill-opacity:1;stroke:#f7ffff;stroke-width:0.65351754px;stroke-linecap:butt;stroke-linejoin:miter;stroke-opacity:1"
         d="m -178.96975,336.52416 c 5.46414,1.68088 11.01117,43.88517 9.61005,45.19947 -3.94044,-1.42755 -10.17555,-38.0523 -9.61005,-45.19947 z"
         id="path4479-6-8-9-6-9-1-2-26" />
      <path
         style="fill:#f7ca00;fill-opacity:1;stroke:#ffffff;stroke-width:0.9207288px;stroke-linecap:butt;stroke-linejoin:miter;stroke-opacity:1"
         d="m -222.82824,225.50888 c 0,0 -113.2886,37.37264 -155.91468,45.04048 -28.20568,5.07379 -25.76623,-89.74751 3.1155,-88.41523 28.91861,1.33395 152.79918,43.37475 152.79918,43.37475 z"
         id="path4479-2-0-1-1" />
      <path
         style="fill:#ffffff;fill-opacity:1;stroke:#f7ffff;stroke-width:0.77601498px;stroke-linecap:butt;stroke-linejoin:miter;stroke-opacity:1"
         d="m -291.42951,233.98887 c -1.16775,6.7829 -47.93883,11.25795 -49.60396,9.4148 1.08456,-4.87865 41.48394,-10.5526 49.60396,-9.4148 z"
         id="path4479-6-8-9-6-48-0-2" />
      <path
         style="fill:#ffffff;fill-opacity:1;stroke:#f7ffff;stroke-width:0.85854703px;stroke-linecap:butt;stroke-linejoin:miter;stroke-opacity:1"
         d="m -241.02239,224.67344 c -4.35111,5.87853 -60.11939,-6.55074 -61.21672,-8.85095 3.41089,-4.14141 52.38387,4.9168 61.21672,8.85095 z"
         id="path4479-6-8-9-6-4-7-6-8" />
      <path
         style="fill:#ffffff;fill-opacity:1;stroke:#f7ffff;stroke-width:0.62902498px;stroke-linecap:butt;stroke-linejoin:miter;stroke-opacity:1"
         d="m -323.8523,216.23608 c -3.3462,4.29428 -45.09709,-3.39215 -45.89198,-5.01242 2.61709,-3.03274 39.30474,2.39037 45.89198,5.01242 z"
         id="path4479-6-8-9-6-9-1-1-8" />
      <path
         style="fill:#ff494b;fill-opacity:1;stroke:#ffffff;stroke-width:0.99361545px;stroke-linecap:butt;stroke-linejoin:miter;stroke-opacity:1"
         d="m -217.82735,232.28966 c 0,0 -64.03711,100.16496 -92.957,132.22703 -19.13627,21.21545 -88.70611,-63.66654 -64.1851,-79.64681 24.55232,-16.00066 157.1421,-52.58022 157.1421,-52.58022 z"
         id="path4479-9-28" />
      <path
         style="fill:#ffffff;fill-opacity:1;stroke:#f7ffff;stroke-width:0.99361545px;stroke-linecap:butt;stroke-linejoin:miter;stroke-opacity:1"
         d="m -253.98392,251.28688 c -1.62552,5.23239 -75.44114,32.57721 -78.88596,30.49497 0.15038,-4.91952 72.60878,-31.71124 78.88596,-30.49497 z"
         id="path4479-6-4-8" />
      <path
         style="fill:#ffffff;fill-opacity:1;stroke:#f7ffff;stroke-width:0.7149691px;stroke-linecap:butt;stroke-linejoin:miter;stroke-opacity:1"
         d="m -239.72537,255.86368 c 1.44651,3.44651 -30.68997,37.374 -39.68238,38.31027 -1.44846,-6.65298 34.65632,-36.92917 39.68238,-38.31027 z"
         id="path4479-6-8-90-8" />
      <path
         style="fill:#ffffff;fill-opacity:1;stroke:#f7ffff;stroke-width:0.88628167px;stroke-linecap:butt;stroke-linejoin:miter;stroke-opacity:1"
         d="m -295.4937,289.40201 c 1.26618,7.42664 -48.68209,35.8917 -51.21474,34.88919 -0.64063,-5.46697 41.82178,-31.87489 51.21474,-34.88919 z"
         id="path4479-6-8-9-9-6" />
      <path
         style="fill:#90c45d;fill-opacity:0.97254902;stroke:#ffffff;stroke-width:0.91382557px;stroke-linecap:butt;stroke-linejoin:miter;stroke-opacity:1"
         d="m -193.59725,224.31592 c 0,0 111.842671,-39.03126 154.307438,-47.47082 28.098908,-5.58444 31.317898,87.10154 2.154764,86.44289 -29.200359,-0.65948 -156.462202,-38.97207 -156.462202,-38.97207 z"
         id="path4479-7-3" />
      <path
         style="fill:#ffffff;fill-opacity:1;stroke:#f7ffff;stroke-width:0.91382557px;stroke-linecap:butt;stroke-linejoin:miter;stroke-opacity:1"
         d="m -153.38405,228.47141 c 4.48158,-2.86667 79.593589,13.59472 81.048064,16.7051 -3.123187,3.35855 -76.823404,-12.83527 -81.048064,-16.7051 z"
         id="path4479-6-7-8" />
      <path
         style="fill:#ffffff;fill-opacity:1;stroke:#f7ffff;stroke-width:0.65755522px;stroke-linecap:butt;stroke-linejoin:miter;stroke-opacity:1"
         d="m -161.87256,218.41597 c 0.95999,-3.09993 47.10933,-11.2921 54.79716,-7.61648 -2.91653,5.33711 -49.97643,9.07264 -54.79716,7.61648 z"
         id="path4479-6-8-1-3" />
      <path
         style="fill:#ffffff;fill-opacity:1;stroke:#f7ffff;stroke-width:0.81511092px;stroke-linecap:butt;stroke-linejoin:miter;stroke-opacity:1"
         d="m -97.259965,221.87066 c 3.533214,-5.78891 60.442062,-1.59762 61.834059,0.32066 -2.831543,4.12111 -52.56028,2.09854 -61.834059,-0.32066 z"
         id="path4479-6-8-9-1-3" />
      <path
         style="fill:#f7ca00;fill-opacity:1;stroke:#ffffff;stroke-width:0.95657951px;stroke-linecap:butt;stroke-linejoin:miter;stroke-opacity:1"
         d="m -219.87275,216.41919 c 0,0 -117.19684,-26.95359 -157.57994,-42.91263 -26.72148,-10.5601 30.40486,-95.51832 53.97569,-78.76605 23.60094,16.77364 103.60425,121.67868 103.60425,121.67868 z"
         id="path4479-2-7-38" />
      <path
         style="fill:#ffffff;fill-opacity:1;stroke:#f7ffff;stroke-width:0.91132098px;stroke-linecap:butt;stroke-linejoin:miter;stroke-opacity:1"
         d="m -256.42945,191.36095 c -9.7972,-1.61629 -68.64203,-55.24602 -68.2372,-57.07208 7.32526,1.44208 60.4113,47.84091 68.2372,57.07208 z"
         id="path4479-6-8-9-6-7-0" />
      <path
         style="fill:#ff494b;fill-opacity:1;stroke:#ffffff;stroke-width:0.95657951px;stroke-linecap:butt;stroke-linejoin:miter;stroke-opacity:1"
         d="m -210.41,236.38632 c 0,0 5.77951,120.1174 1.34859,163.31292 -2.93195,28.58246 -100.18267,-3.41154 -90.43684,-30.63729 C -289.74,341.80143 -210.41,236.38632 -210.41,236.38632 Z"
         id="path4479-2-7-3-4" />
      <path
         style="fill:#f7ff00;fill-opacity:1;stroke:url(#linearGradient5967);stroke-width:0.95657951px;stroke-linecap:butt;stroke-linejoin:miter;stroke-opacity:1"
         d="m -197.37675,216.21014 c 0,0 67.4575,-99.5544 96.92296,-131.4491 19.4973,-21.10471 78.09248,62.8472 53.95867,78.77771 -24.16462,15.95089 -150.88163,52.67139 -150.88163,52.67139 z"
         id="path4479-2-7-6-7" />
      <path
         style="fill:#ffffff;fill-opacity:1;stroke:#f7ffff;stroke-width:0.56275535px;stroke-linecap:butt;stroke-linejoin:miter;stroke-opacity:1"
         d="m -249.35736,327.78338 c -1.94367,-4.67268 17.91419,-41.35548 19.35341,-41.53377 1.28556,3.53954 -15.20569,36.24346 -19.35341,41.53377 z"
         id="path4479-6-8-9-6-7-5-68" />
      <path
         style="fill:#ffffff;fill-opacity:1;stroke:#f7ffff;stroke-width:0.73650324px;stroke-linecap:butt;stroke-linejoin:miter;stroke-opacity:1"
         d="m -237.54626,376.66833 c -3.85349,-5.53251 7.53543,-62.11598 9.18294,-62.89382 2.69755,4.26078 -6.01806,54.25268 -9.18294,62.89382 z"
         id="path4479-6-8-9-6-7-5-6-9" />
      <path
         style="fill:#ffffff;fill-opacity:1;stroke:#f7ffff;stroke-width:0.91132098px;stroke-linecap:butt;stroke-linejoin:miter;stroke-opacity:1"
         d="m -168.36734,193.47652 c 2.69219,-9.5577 62.51346,-62.09604 64.28341,-61.49132 -2.24508,7.1203 -54.24174,54.73676 -64.28341,61.49132 z"
         id="path4479-6-8-9-6-7-3-0" />
      <path
         style="fill:#ffffff;fill-opacity:1;stroke:#f7ffff;stroke-width:0.36368191px;stroke-linecap:butt;stroke-linejoin:miter;stroke-opacity:1"
         d="m -140.06009,186.0243 c 2.39059,-3.26518 31.41886,-14.24668 31.95228,-13.73984 -1.86543,2.39544 -27.39074,12.69179 -31.95228,13.73984 z"
         id="path4479-6-8-9-6-7-3-9-6" />
    </g>
    <flowRoot
       style="fill:black;stroke:none;stroke-opacity:1;stroke-width:1px;stroke-linejoin:miter;stroke-linecap:butt;fill-opacity:1;font-family:Sans;font-style:normal;font-weight:normal;font-size:30px;line-height:125%;letter-spacing:0px;word-spacing:0px"
       id="flowRoot4534"
       xml:space="preserve"><flowRegion
         id="flowRegion4536"><rect
           y="-681.3324"
           x="-29.907274"
           height="435.52466"
           width="1029.9318"
           id="rect4538" /></flowRegion><flowPara
         id="flowPara4540"></flowPara></flowRoot>  </g>
  <g
     transform="translate(0,-752.36218)"
     id="layer3" />
</svg>
